<svg id="Layer_1" enable-background="new 0 0 512.002 512.002" height="512" viewBox="0 0 512.002 512.002" width="512" xmlns="http://www.w3.org/2000/svg"><g><g><path d="m422.002 0h-332.002c-49.626 0-90 40.375-90 90v332.002c0 49.626 40.374 89.999 90 89.999h332.002c49.626 0 90-40.373 90-89.999v-332.002c0-49.625-40.374-90-90-90zm70 422.002c0 38.598-31.402 69.999-70 69.999h-332.002c-38.598 0-70-31.401-70-69.999v-332.002c0-38.598 31.402-70 70-70h332.002c38.598 0 70 31.402 70 70z"/><path d="m422.002 50h-332.002c-22.056 0-40 17.944-40 40v332.002c0 22.056 17.944 40 40 40h332.002c22.056 0 40-17.944 40-40v-332.002c0-22.056-17.944-40-40-40zm20 372.002c0 11.028-8.972 20-20 20h-156.001v-30c0-5.522-4.478-10-10-10-5.523 0-10 4.478-10 10v30h-156.001c-11.028 0-20-8.972-20-20v-156.001h30c5.523 0 10-4.478 10-10s-4.477-10-10-10h-30v-156.001c0-11.028 8.972-20 20-20h156.001v.001 29.999c0 5.522 4.477 10 10 10 5.522 0 10-4.478 10-10v-30-.001h156.001c11.028 0 20 8.973 20 20.001v156.001h-29.999c-5.522 0-10 4.478-10 10s4.478 10 10 10h29.999z"/><path d="m164.34 117.24c1.852 3.208 5.213 5.002 8.669 5.002 1.696 0 3.416-.433 4.991-1.342 4.783-2.761 6.422-8.877 3.66-13.66l-9.999-17.32c-2.761-4.783-8.877-6.423-13.66-3.66-4.783 2.761-6.422 8.877-3.66 13.66z"/><path d="m120.899 178c2.762-4.783 1.123-10.898-3.66-13.66l-17.32-10c-4.781-2.76-10.898-1.122-13.66 3.66-2.762 4.783-1.123 10.898 3.66 13.66l17.32 10c1.575.909 3.294 1.342 4.991 1.342 3.456 0 6.817-1.794 8.669-5.002z"/><path d="m107.239 330.342-17.32 9.999c-4.783 2.761-6.422 8.877-3.661 13.66 1.853 3.208 5.214 5.002 8.67 5.002 1.696 0 3.416-.433 4.991-1.342l17.32-9.999c4.783-2.761 6.422-8.877 3.661-13.66-2.762-4.783-8.879-6.421-13.661-3.66z"/><path d="m178 391.103c-4.781-2.761-10.899-1.122-13.66 3.66l-10 17.319c-2.762 4.783-1.123 10.898 3.66 13.66 1.575.909 3.294 1.342 4.991 1.342 3.456 0 6.817-1.794 8.669-5.002l9.999-17.319c2.763-4.783 1.124-10.898-3.659-13.66z"/><path d="m347.662 394.763c-2.761-4.781-8.874-6.422-13.66-3.66-4.783 2.761-6.422 8.877-3.66 13.66l9.999 17.319c1.853 3.208 5.213 5.002 8.67 5.002 1.696 0 3.415-.433 4.99-1.342 4.783-2.761 6.422-8.877 3.66-13.66z"/><path d="m391.103 334.002c-2.762 4.783-1.123 10.899 3.66 13.66l17.32 9.999c1.575.909 3.294 1.342 4.99 1.342 3.456 0 6.818-1.794 8.67-5.002 2.762-4.783 1.123-10.899-3.66-13.66l-17.32-9.999c-4.784-2.76-10.9-1.123-13.66 3.66z"/><path d="m399.772 183.002c1.696 0 3.416-.433 4.99-1.342l17.32-10c4.783-2.762 6.422-8.877 3.66-13.66-2.761-4.782-8.876-6.421-13.66-3.66l-17.32 10c-4.783 2.762-6.422 8.877-3.66 13.66 1.853 3.208 5.213 5.002 8.67 5.002z"/><path d="m334.002 120.9c1.575.909 3.294 1.342 4.99 1.342 3.456 0 6.818-1.794 8.67-5.002l9.999-17.32c2.762-4.783 1.123-10.899-3.66-13.66-4.785-2.762-10.9-1.122-13.66 3.66l-9.999 17.32c-2.762 4.783-1.123 10.899 3.66 13.66z"/><path d="m266.001 135.752v-.42c0-5.522-4.478-10-10-10-5.523 0-10 4.478-10 10v.418c-11.792.971-23.295 3.656-34.309 8.033-5.132 2.04-7.639 7.854-5.599 12.987 2.041 5.132 7.855 7.64 12.987 5.599 8.653-3.44 17.674-5.62 26.921-6.535v26.01c-32.912 4.456-59.041 30.574-63.495 63.488h-26.013c.888-8.957 2.973-17.706 6.231-26.115 1.996-5.149-.561-10.942-5.711-12.938-5.15-1.997-10.942.562-12.938 5.711-5.358 13.827-8.075 28.409-8.075 43.342 0 5.522 4.477 10 10 10h45.833c5.523 0 10-4.478 10-10 0-26.451 19.062-48.519 44.167-53.226v53.896c0 5.522 4.477 10 10 10h53.097c-3.049 15.062-12.445 28.399-26.017 36.253-4.777 2.764-6.412 8.876-3.652 13.655l22.912 39.685c1.853 3.208 5.213 5.002 8.67 5.002 1.696 0 3.416-.433 4.99-1.342 37.01-21.367 60-61.188 60-103.923.001-62.801-48.493-114.481-109.999-119.58zm0 66.353c22.085 4.141 39.478 21.718 43.346 43.896h-43.346zm48.408 134.392-13.005-22.523c15.143-11.761 25.21-29.03 27.986-47.972h.778c5.522 0 10-4.478 10-10s-4.478-10-10-10h-.608c-4.191-33.222-30.429-59.656-63.559-64.144v-26.028c50.463 5.033 90 47.736 90 99.501 0 32.254-15.715 62.516-41.592 81.166z"/><path d="m170.374 170.989-.005.006c-3.732 4.071-3.454 10.394.617 14.125 1.919 1.76 4.339 2.628 6.753 2.628 2.707 0 5.406-1.093 7.378-3.245 3.732-4.071 3.457-10.396-.614-14.128-4.072-3.733-10.398-3.458-14.129.614z"/></g></g></svg>