<svg height="512pt" viewBox="-19 0 512 512.00068" width="512pt" xmlns="http://www.w3.org/2000/svg"><path d="m14.507812 292.171875c12.238282 5.367187 26.507813-.199219 31.878907-12.433594l5.265625-12.003906c4.324218 1.769531 9.261718-.300781 11.03125-4.621094.023437-.054687.042968-.105469.0625-.160156l22.589844-57.980469v51.027344c0 4.714844 3.820312 8.535156 8.53125 8.535156h4.464843l-12.390625 30.957032c-.402344 1.011718-.605468 2.089843-.605468 3.175781v162.132812c-14.140626 0-25.601563 11.460938-25.601563 25.601563 0 14.136718 11.460937 25.597656 25.601563 25.597656h102.398437c14.140625 0 25.601563-11.460938 25.601563-25.597656 0-14.140625-11.460938-25.601563-25.601563-25.601563v-162.132812c0-1.089844-.207031-2.164063-.605469-3.175781l-12.390625-30.960938h4.464844c3.203125-.019531 6.117187-1.851562 7.535156-4.726562l1.132813 6.253906c.738281 4.058594 4.273437 7.007812 8.398437 7.007812.609375-.011718 1.21875-.085937 1.816407-.222656l3.164062 12.699219c3.234375 12.957031 16.359375 20.84375 29.320312 17.609375.007813 0 .019532-.003906.027344-.007813 3.628906-.917969 6.992188-2.667969 9.820313-5.117187 8.445312-.914063 15.511719-6.808594 17.921875-14.953125l25.34375-77.277344 6.453125 10.042969v37.746094l-16.371094 26.597656c-24.957031 40.585937-41.355469 85.847656-48.195313 133 0 .1875-.074218.351562-.085937.539062-2.394531 16.5-3.601563 33.152344-3.617187 49.824219v39.917969c0 4.714844 3.820312 8.535156 8.535156 8.535156h204.796875c4.714843 0 8.535156-3.820312 8.535156-8.535156v-39.917969c0-9.597656-.519531-19.148437-1.296875-28.664063-.007812-.488281-.058594-.976562-.152344-1.457031-3.800781-44.03125-15.921875-86.945312-35.722656-126.457031-.171875-.46875-.390625-.925781-.648438-1.355469-4.367187-8.628906-8.984374-17.144531-14.078124-25.429687l-16.367188-26.597656v-37.691407l8.214844-12.410156c27.308594 45.117187 44.621094 75.332031 44.640625 75.34375 3.105469 6.023437 8.628906 10.441406 15.1875 12.148437 1.949219.507813 3.957031.765626 5.972656.761719 13.160156.007813 23.832031-10.652343 23.839844-23.8125.003906-3.792969-.898438-7.527343-2.632813-10.902343l-52.558594-101.988282c-4.757812-11.222656-14.066406-19.890625-25.597656-23.835937v-71.464844c0-32.992187-26.746094-59.734375-59.734375-59.734375s-59.734375 26.742188-59.734375 59.734375v70.644531l-1.601562.539063c-14.058594 4.734375-24.671875 16.394531-28.066406 30.832031l-13.195313 55.464844-12.796875-55.378906c-3.390625-14.460938-14.011719-26.140626-28.085938-30.882813l-7.441406-2.484375c-.902344-.085938-1.796875-.242188-2.679687-.46875h-34.132813v-9.746094c12.035156-3.128906 21.40625-12.5625 24.457032-24.617187.375.101562.757812.179687 1.144531.230469h8.53125c4.714843 0 8.535156-3.820313 8.535156-8.535157v-34.132812c-.027344-23.550781-19.113281-42.636719-42.667969-42.664063h-17.066406c-23.550781.027344-42.636719 19.113282-42.664062 42.664063v34.132812c0 4.714844 3.820312 8.535157 8.53125 8.535157h8.535156c.382812-.050782.765625-.128907 1.140625-.230469 3.050781 12.050781 12.425781 21.488281 24.457031 24.617187v9.746094h-34.132812c-.058594 0-.109376 0-.171876 0-.640624-.054688-1.285156-.03125-1.917968.066406l-7.75 1.195313c-14.660156 2.339843-27.074219 12.082031-32.828125 25.769531l-36.109375 86.460938-10.414063 14.210937c-7.894531 10.78125-5.554687 25.925781 5.230469 33.820313 1.429688 1.050781 2.976562 1.9375 4.601562 2.648437zm388.265626-129.945313 52.796874 102.613282c1.699219 3.324218.378907 7.394531-2.945312 9.09375-1.460938.746094-3.144531.9375-4.734375.53125-1.980469-.527344-3.621094-1.910156-4.480469-3.769532-.207031-.351562-20.285156-35.355468-51.199218-86.273437l-7.511719-37.648437c8.132812 1.972656 14.824219 7.714843 18.007812 15.453124zm23.894531 301.320313v31.386719h-187.734375v-31.386719c.03125-14.25.976562-28.484375 2.832031-42.613281l29.648437-9.113282c22.351563-6.910156 43.609376-16.949218 63.144532-29.824218 22.113281 24.394531 49.71875 43.175781 80.53125 54.78125l10.777344 4.039062c.53125 7.554688.800781 15.132813.800781 22.730469zm-30.234375-138.28125c14.003906 30.617187 23.277344 63.183594 27.496094 96.589844l-2.835938-1.058594c-27.628906-10.398437-52.460938-27.082031-72.53125-48.734375 12.671875-9.640625 24.390625-20.476562 34.984375-32.359375zm-19.132813-36.140625c3.925781 6.382812 7.625 12.878906 11.09375 19.492188l-17.550781 19.746093c-28.019531 31.515625-64.144531 54.742188-104.449219 67.148438l-21.582031 6.640625c7.460938-40.023438 22.214844-78.335938 43.519531-113.027344l15.105469-24.589844h58.726562zm-53.28125-105.53125c2.425781 4.042969 7.667969 5.351562 11.707031 2.929688 1.203126-.722657 2.207032-1.726563 2.929688-2.929688l23.15625-38.527344h5.207031l7.980469 40.695313-12.648438 19.039062h-59.023437l-12.800781-19.953125 5.582031-39.78125h4.820313zm-3.164062-38.527344h21.050781l-10.523438 17.546875zm37.546875 76.800782v25.601562h-51.203125v-25.601562zm4.402344-192.417969c8.101562 7.992187 12.664062 18.902343 12.664062 30.285156v68.375l-.453125-.050781c-.164063 0-.308594 0-.460937 0-.152344 0-.359376-.058594-.554688-.058594h-34.132812v-9.746094c15.023437-3.878906 25.539062-17.402344 25.597656-32.921875v-42.664062c.007812-4.542969-.898438-9.035157-2.660156-13.21875zm-48.53125 13.21875c0-9.425781 7.644531-17.066407 17.070312-17.066407s17.066406 7.640626 17.066406 17.066407v5.222656l-14.371094-4.789063c-1.753906-.578124-3.648437-.578124-5.402343 0l-14.363281 4.789063zm0 23.21875 17.070312-5.691407 17.066406 5.691407v19.445312c0 9.425781-7.640625 17.066407-17.066406 17.066407s-17.070312-7.640626-17.070312-17.066407zm-24.140626-6.152344c.015626-8.863281 2.8125-17.5 7.996094-24.6875-.59375 2.496094-.902344 5.054687-.921875 7.621094v42.664062c.058594 15.519531 10.578125 29.042969 25.601563 32.921875v9.746094h-32.675782zm-30.121093 105.90625c2.035156-8.675781 8.410156-15.6875 16.851562-18.535156l1.785157-.589844-4.898438 34.859375-28.160156 85.898438-6.65625-13.21875zm-28.902344 110.839844c1.753906 3.527343.316406 7.808593-3.214844 9.5625-2.171875 1.082031-4.746093.980469-6.828125-.261719-1.625-.972656-2.796875-2.550781-3.25-4.386719l-3.167968-12.671875 11.179687-2.789062zm-43.375-127.753907c6.589844 3.488282 11.351563 9.65625 13.054687 16.914063l19.414063 84.113281-17.167969 4.265625-15.300781-84.121093zm-59.734375 346.207032h-42.664062c-4.714844 0-8.535157-3.820313-8.535157-8.535156 0-4.710938 3.820313-8.53125 8.535157-8.53125h42.664062zm59.734375-17.066406c4.710937 0 8.535156 3.820312 8.535156 8.53125 0 4.714843-3.824219 8.535156-8.535156 8.535156h-42.667969v-17.066406zm-17.066406-332.800782v102.402344h-25.601563v-65.90625l21.898438-36.496094zm-62.429688-93.429687c-3.488281 1.160156-5.839843 4.421875-5.835937 8.097656v-8.535156c0-14.136719 11.460937-25.597657 25.597656-25.597657h17.066406c14.140625 0 25.601563 11.460938 25.601563 25.597657v8.535156c0-3.675781-2.351563-6.9375-5.835938-8.097656l-25.601562-8.535157c-1.75-.582031-3.640625-.582031-5.394531 0zm11.230469 33.695312v-19.445312l17.066406-5.691407 17.066406 5.691407v19.445312c0 9.425781-7.640624 17.066407-17.066406 17.066407-9.425781 0-17.066406-7.640626-17.066406-17.066407zm27.59375 59.734375-10.527344 17.546875-10.53125-17.546875zm-44.660156 0h3.703125l21.894531 36.496094v65.902344h-25.597656zm0 155.238282 14.308594-35.773438h39.644531l14.3125 35.773438v160.496093h-25.601563v-136.535156c0-4.710937-3.820312-8.53125-8.53125-8.53125-4.714844 0-8.535156 3.820313-8.535156 8.53125v136.535156h-25.597656zm-35.484375-138.699219c3.304687-7.734375 10.183593-13.359375 18.417969-15.0625v11.417969l-35.261719 90.511718-16.402344-7.191406zm-48.46875 104.199219 6.964843-9.515626 10.554688 4.632813-5.238281 11.949219c-1.578125 3.605468-5.777344 5.253906-9.382813 3.675781-1.988281-.867187-3.472656-2.59375-4.03125-4.691406-.574218-2.085938-.15625-4.316407 1.132813-6.050781zm0 0"/><path d="m224.367188 65.765625c3.332031 3.332031 8.734374 3.332031 12.066406 0l17.066406-17.066406c3.390625-3.273438 3.484375-8.675781.210938-12.066407-3.273438-3.390624-8.675782-3.484374-12.066407-.207031-.070312.066407-.140625.136719-.210937.207031l-11.03125 11.035157-11.035156-11.035157c-3.390626-3.273437-8.792969-3.179687-12.066407.210938-3.191406 3.304688-3.191406 8.550781 0 11.855469zm0 0"/></svg>