<?xml version="1.0" encoding="iso-8859-1"?>
<!-- Generator: Adobe Illustrator 19.0.0, SVG Export Plug-In . SVG Version: 6.00 Build 0)  -->
<svg version="1.1" id="Capa_1" xmlns="http://www.w3.org/2000/svg" xmlns:xlink="http://www.w3.org/1999/xlink" x="0px" y="0px"
	 viewBox="0 0 512 512" style="enable-background:new 0 0 512 512;" xml:space="preserve">
<path style="fill:#CFD8DC;" d="M458.667,66.666H160c-29.455,0-53.333,23.878-53.333,53.333v181.333
	c0,23.564,19.103,42.667,42.667,42.667h309.333C488.122,344,512,320.121,512,290.667V119.999
	C512,90.544,488.122,66.666,458.667,66.666z"/>
<path style="fill:#FFC107;" d="M377.297,242.335c0.009-4.524,1.96-8.827,5.356-11.816c3.276-2.96,3.532-8.015,0.572-11.292
	c-0.181-0.2-0.372-0.391-0.572-0.572c-13.083-11.865-33.306-10.877-45.171,2.206s-10.877,33.306,2.206,45.171
	c12.189,11.054,30.776,11.054,42.965,0c3.276-2.96,3.532-8.016,0.572-11.292c-0.181-0.2-0.372-0.391-0.572-0.572
	C379.252,251.175,377.301,246.865,377.297,242.335z"/>
<circle style="fill:#455A64;" cx="405.33" cy="243.006" r="42.667"/>
<g>
	<path style="fill:#90A4AE;" d="M202.667,151.999h-21.333c-5.891,0-10.667-4.776-10.667-10.667s4.775-10.666,10.666-10.666h21.333
		c5.891,0,10.667,4.776,10.667,10.667S208.558,151.999,202.667,151.999z"/>
	<path style="fill:#90A4AE;" d="M266.667,151.999h-21.333c-5.891,0-10.667-4.776-10.667-10.667s4.775-10.666,10.666-10.666h21.333
		c5.891,0,10.667,4.776,10.667,10.667S272.558,151.999,266.667,151.999z"/>
	<path style="fill:#90A4AE;" d="M330.667,151.999h-21.333c-5.891,0-10.667-4.776-10.667-10.667s4.775-10.666,10.666-10.666h21.333
		c5.891,0,10.667,4.776,10.667,10.667S336.558,151.999,330.667,151.999z"/>
	<path style="fill:#90A4AE;" d="M394.667,151.999h-21.333c-5.891,0-10.667-4.776-10.667-10.667s4.775-10.666,10.666-10.666h21.333
		c5.891,0,10.667,4.776,10.667,10.667S400.558,151.999,394.667,151.999z"/>
	<path style="fill:#90A4AE;" d="M288,215.999h-85.333c-5.891,0-10.667-4.776-10.667-10.667s4.776-10.666,10.667-10.666H288
		c5.891,0,10.667,4.776,10.667,10.667S293.891,215.999,288,215.999z"/>
	<path style="fill:#90A4AE;" d="M288,280h-21.333c-5.891,0-10.667-4.776-10.667-10.667s4.776-10.667,10.667-10.667H288
		c5.891,0,10.667,4.776,10.667,10.667C298.667,275.225,293.891,280,288,280z"/>
</g>
<g>
	<path style="fill:#4CAF50;" d="M74.667,413.333C33.429,413.333,0,379.904,0,338.667S33.429,264,74.667,264h42.667
		c5.891,0,10.667,4.776,10.667,10.667s-4.776,10.667-10.667,10.667H74.667c-29.455,0-53.333,23.878-53.333,53.333
		c0,29.455,23.878,53.333,53.333,53.333c5.891,0,10.667,4.776,10.667,10.667C85.333,408.557,80.558,413.333,74.667,413.333z"/>
	<path style="fill:#4CAF50;" d="M160,413.333h-42.667c-5.891,0-10.667-4.776-10.667-10.667S111.442,392,117.333,392H160
		c29.455,0,53.333-23.878,53.333-53.333c0-29.455-23.878-53.333-53.333-53.333c-5.891,0-10.667-4.776-10.667-10.667
		S154.109,264,160,264c41.237,0,74.667,33.429,74.667,74.667S201.237,413.333,160,413.333z"/>
	<path style="fill:#4CAF50;" d="M85.333,317.333c-5.891,0.011-10.675-4.757-10.686-10.648c-0.005-2.84,1.123-5.565,3.134-7.571
		l24.47-24.448l-24.469-24.533c-4.092-4.237-3.975-10.99,0.262-15.083c4.134-3.992,10.687-3.992,14.82,0l32,32
		c4.164,4.165,4.164,10.917,0,15.083l-32,32C90.879,316.159,88.169,317.31,85.333,317.333z"/>
	<path style="fill:#4CAF50;" d="M149.333,445.333c-2.831,0.005-5.548-1.115-7.552-3.115l-32-32c-4.164-4.165-4.164-10.917,0-15.083
		l32-32c4.237-4.093,10.99-3.975,15.083,0.262c3.993,4.134,3.993,10.687,0,14.821l-24.448,24.448l24.469,24.533
		c4.124,4.207,4.056,10.96-0.15,15.084C154.757,444.223,152.103,445.316,149.333,445.333z"/>
</g>
<path d="M74.667,413.333C33.429,413.333,0,379.904,0,338.667S33.429,264,74.667,264h42.667c5.891,0,10.667,4.776,10.667,10.667
	s-4.776,10.667-10.667,10.667H74.667c-29.455,0-53.333,23.878-53.333,53.333c0,29.455,23.878,53.333,53.333,53.333
	c5.891,0,10.667,4.776,10.667,10.667C85.333,408.557,80.558,413.333,74.667,413.333z"/>
<path d="M160,413.333h-42.667c-5.891,0-10.667-4.776-10.667-10.667S111.442,392,117.333,392H160
	c29.455,0,53.333-23.878,53.333-53.333c0-29.455-23.878-53.333-53.333-53.333c-5.891,0-10.667-4.776-10.667-10.667
	S154.109,264,160,264c41.237,0,74.667,33.429,74.667,74.667S201.237,413.333,160,413.333z"/>
<path d="M85.333,317.333c-5.891,0.011-10.675-4.757-10.686-10.648c-0.005-2.84,1.123-5.565,3.134-7.571l24.47-24.448l-24.469-24.533
	c-4.092-4.237-3.975-10.99,0.262-15.083c4.134-3.992,10.687-3.992,14.82,0l32,32c4.164,4.165,4.164,10.917,0,15.083l-32,32
	C90.879,316.159,88.169,317.31,85.333,317.333z"/>
<path d="M149.333,445.333c-2.831,0.005-5.548-1.115-7.552-3.115l-32-32c-4.164-4.165-4.164-10.917,0-15.083l32-32
	c4.237-4.093,10.99-3.975,15.083,0.262c3.993,4.134,3.993,10.687,0,14.821l-24.448,24.448l24.469,24.533
	c4.124,4.207,4.056,10.96-0.15,15.084C154.757,444.223,152.103,445.316,149.333,445.333z"/>
<path d="M458.667,344.333h-192c-5.891,0-10.667-4.776-10.667-10.667S260.776,323,266.667,323h192c17.673,0,32-14.327,32-32l0,0
	V120.333c0-17.673-14.327-32-32-32H160c-17.673,0-32,14.327-32,32v85.333c0,5.891-4.776,10.667-10.667,10.667
	s-10.667-4.776-10.667-10.667v-85.333c0-29.455,23.878-53.333,53.333-53.333h298.667c29.455,0,53.333,23.878,53.333,53.333v170.667
	C512,320.456,488.122,344.333,458.667,344.333z"/>
<path d="M362.667,285.333c-23.564,0.107-42.753-18.908-42.86-42.472s18.908-42.753,42.472-42.86
	c10.668-0.048,20.968,3.901,28.868,11.071c4.371,3.949,4.713,10.694,0.764,15.066c-0.241,0.267-0.496,0.522-0.764,0.764
	c-8.713,7.648-9.576,20.912-1.927,29.625c0.6,0.684,1.244,1.327,1.927,1.927c4.371,3.949,4.713,10.694,0.764,15.066
	c-0.241,0.267-0.496,0.522-0.764,0.764C383.35,281.367,373.201,285.306,362.667,285.333z M362.667,221.333
	c-11.782,0-21.333,9.551-21.333,21.333c0.243,11.956,10.133,21.452,22.089,21.208c1.564-0.032,3.12-0.233,4.641-0.6
	c-7.212-12.792-7.212-28.424,0-41.216C366.305,221.578,364.49,221.334,362.667,221.333z"/>
<path d="M405.333,285.333c-23.564,0-42.667-19.103-42.667-42.667s19.102-42.667,42.667-42.667S448,219.102,448,242.666
	S428.898,285.333,405.333,285.333z M405.333,221.333c-11.782,0-21.333,9.551-21.333,21.333S393.551,264,405.333,264
	s21.333-9.551,21.333-21.333C426.667,230.884,417.115,221.333,405.333,221.333z"/>
<path d="M202.667,152.333h-21.333c-5.891,0-10.667-4.776-10.667-10.667s4.776-10.667,10.667-10.667h21.333
	c5.891,0,10.667,4.776,10.667,10.667C213.333,147.557,208.558,152.333,202.667,152.333z"/>
<path d="M266.667,152.333h-21.333c-5.891,0-10.667-4.776-10.667-10.667s4.776-10.667,10.667-10.667h21.333
	c5.891,0,10.667,4.776,10.667,10.667C277.333,147.557,272.558,152.333,266.667,152.333z"/>
<path d="M330.667,152.333h-21.333c-5.891,0-10.667-4.776-10.667-10.667s4.776-10.667,10.667-10.667h21.333
	c5.891,0,10.667,4.776,10.667,10.667C341.333,147.557,336.558,152.333,330.667,152.333z"/>
<path d="M394.667,152.333h-21.333c-5.891,0-10.667-4.776-10.667-10.667s4.776-10.667,10.667-10.667h21.333
	c5.891,0,10.667,4.776,10.667,10.667C405.333,147.557,400.558,152.333,394.667,152.333z"/>
<path d="M288,216.333h-85.333c-5.891,0-10.667-4.776-10.667-10.667s4.776-10.667,10.667-10.667H288
	c5.891,0,10.667,4.776,10.667,10.667C298.667,211.557,293.891,216.333,288,216.333z"/>
<path d="M288,280.333h-21.333c-5.891,0-10.667-4.776-10.667-10.667S260.776,259,266.667,259H288c5.891,0,10.667,4.776,10.667,10.667
	S293.891,280.333,288,280.333z"/>
<g>
</g>
<g>
</g>
<g>
</g>
<g>
</g>
<g>
</g>
<g>
</g>
<g>
</g>
<g>
</g>
<g>
</g>
<g>
</g>
<g>
</g>
<g>
</g>
<g>
</g>
<g>
</g>
<g>
</g>
</svg>
