<svg id="Capa_1" enable-background="new 0 0 512 512" height="512" viewBox="0 0 512 512" width="512" xmlns="http://www.w3.org/2000/svg"><g><path d="m199.783 289.007c2.113 0 4.213-.888 5.697-2.617l37.728-43.992c1.166-1.36 1.807-3.092 1.807-4.883v-82.287c0-4.143-3.358-7.5-7.5-7.5s-7.5 3.357-7.5 7.5v79.511l-35.921 41.885c-2.696 3.145-2.333 7.88.811 10.576 1.414 1.213 3.15 1.807 4.878 1.807z"/><path d="m493.9 366.503h-4.68c-1.08-3.11-2.34-6.18-3.77-9.19l3.29-3.3c7.05-7.05 7.05-18.52 0-25.57l-19.9-19.9c-1.15-1.15-2.42-2.11-3.76-2.89.82-2.74 1.59-5.5 2.31-8.28 8.95-34.499 9.99-71.269 3.03-106.338-.81-4.06-4.76-6.7-8.82-5.89-4.07.81-6.7 4.76-5.9 8.82 7.46 37.519 5.28 75.279-5.78 110.358-2.43.87-4.7 2.28-6.65 4.22l-3.29 3.29c-3.02-1.42-6.08-2.68-9.19-3.77v-4.67c0-8.62-6.04-15.85-14.09-17.66 5.17-19.27 7.21-39.469 5.91-59.969-3.14-49.439-25.35-94.698-62.539-127.438-35.17-30.985-78.888-46.19-122.439-46.194-.382-.06-.77-.1-1.168-.1-.419 0-.828.043-1.228.109-50.654.645-100.865 21.86-136.91 62.784-2.74 3.1-2.44 7.84.67 10.58s7.84 2.44 10.58-.67c31.602-35.874 75.046-55.261 119.389-57.492v17.87c0 4.143 3.358 7.5 7.5 7.5s7.5-3.357 7.5-7.5v-17.972c37.909 1.404 75.577 15.367 106.197 42.336 34.18 30.099 54.599 71.699 57.479 117.138.091 1.433.16 2.863.216 4.292h-18.043c-4.142 0-7.5 3.357-7.5 7.5s3.357 7.5 7.5 7.5h17.979c-.641 13.41-2.843 26.574-6.542 39.277h-16.68c-9.97 0-18.07 8.12-18.07 18.11v5.21c-2.95 1.09-5.86 2.33-8.71 3.72l-3.78-3.78c-7.05-7.05-18.52-7.05-25.57 0l-19.9 19.9c-7.05 7.05-7.05 18.52 0 25.57l4.31 4.32c-1.21 2.67-2.31 5.4-3.28 8.17h-6.18c-9.99 0-18.11 8.1-18.11 18.07v16.52c-9.625 2.796-19.463 4.718-29.385 5.792v-15.709c0-4.143-3.358-7.5-7.5-7.5s-7.5 3.357-7.5 7.5v16.671c-41.186.844-82.785-13.089-116.063-42.393-35.625-31.378-55.428-75.335-57.505-120.438h17.883c4.142 0 7.5-3.357 7.5-7.5s-3.358-7.5-7.5-7.5h-17.92c1.09-26.34 8.269-52.639 21.917-76.638 2.05-3.6.79-8.18-2.81-10.22-3.6-2.05-8.18-.79-10.22 2.81-15.762 27.699-24 59.177-24.114 90.966-.015.193-.029.386-.029.582 0 .204.015.405.031.604.027 9.706.802 19.437 2.364 29.095 6.83 42.259 28.31 81.149 60.499 109.498 35.179 30.979 78.909 46.189 122.468 46.189 3.386 0 6.77-.114 10.151-.299.281.032.565.052.854.052.572 0 1.126-.07 1.661-.191 12.016-.817 23.96-2.788 35.634-5.912 1.76 8.13 9.03 14.24 17.7 14.24h6.7c.97 2.61 2.05 5.18 3.24 7.71l-4.79 4.77c-1.91 1.92-3.31 4.15-4.18 6.54-16.93 5.3-34.619 8.6-52.769 9.75-4.82.31-9.62.46-14.4.46-54.119 0-105.758-19.45-146.737-55.539-92.062-81.081-101.012-221.958-19.943-314.027 81.079-92.058 221.956-101.008 314.025-19.94 27.61 24.3 48.899 55.259 61.589 89.528 1.44 3.88 5.75 5.87 9.64 4.43 3.88-1.44 5.87-5.76 4.43-9.64-13.55-36.589-36.279-69.639-65.739-95.578-47.61-41.908-108.689-62.788-172.008-58.768-63.309 4.02-121.268 32.449-163.197 80.049-41.909 47.609-62.789 108.698-58.769 172.007s32.449 121.268 80.049 163.197c43.749 38.529 98.868 59.279 156.637 59.279 5.1 0 10.23-.16 15.37-.49 18.24-1.16 36.039-4.34 53.129-9.43.77 1.34 1.73 2.6 2.87 3.74l19.9 19.9c7.05 7.05 18.52 7.05 25.57.01l4.79-4.78c2.53 1.19 5.09 2.26 7.7 3.22v6.71c0 9.98 8.1 18.1 18.07 18.1h28.149c9.96 0 18.07-8.12 18.07-18.1v-6.16c2.75-.97 5.48-2.07 8.17-3.31l4.31 4.31c7.05 7.05 18.52 7.05 25.57 0l19.9-19.9c7.05-7.05 7.05-18.52 0-25.57l-3.77-3.77c1.39-2.85 2.63-5.75 3.72-8.71h5.21c9.98 0 18.1-8.11 18.1-18.07v-28.149c-.003-9.97-8.123-18.069-18.103-18.069zm3.1 46.219c0 1.66-1.42 3.07-3.1 3.07h-10.6c-3.31 0-6.23 2.17-7.18 5.34-1.68 5.56-4 10.96-6.89 16.06-1.66 2.94-1.16 6.62 1.22 9.01l7.69 7.68c1.18 1.18 1.18 3.18 0 4.36l-19.9 19.9c-1.18 1.18-3.18 1.18-4.36 0l-8.11-8.11c-2.33-2.33-5.9-2.86-8.81-1.33-5.08 2.69-10.37 4.82-15.71 6.33-3.23.92-5.46 3.86-5.46 7.22v11.65c0 1.68-1.41 3.1-3.07 3.1h-28.149c-1.67 0-3.07-1.42-3.07-3.1v-12.11c0-3.3-2.17-6.22-5.34-7.18-5.22-1.57-10.34-3.71-15.21-6.37-1.13-.62-2.37-.92-3.59-.92-1.94 0-3.86.75-5.3 2.19l-8.65 8.63c-1.18 1.18-3.18 1.18-4.36 0l-18.14-18.14-1.76-1.76c-1.18-1.19-1.18-3.18-.01-4.36l8.65-8.61c1.44-1.44 2.19-3.34 2.2-5.27.01-1.24-.29-2.5-.92-3.65-2.67-4.86-4.82-9.99-6.4-15.22-.95-3.17-3.87-5.34-7.18-5.34h-12.1c-1.69 0-3.11-1.41-3.11-3.07v-.73-16.02-11.4c0-1.67 1.42-3.07 3.11-3.07h11.67c3.36 0 6.31-2.23 7.22-5.46 1.54-5.42 3.66-10.71 6.3-15.72 1.54-2.91 1-6.48-1.32-8.81l-8.11-8.1c-1.18-1.18-1.18-3.18 0-4.36l19.9-19.9c1.18-1.18 3.18-1.18 4.36 0l7.68 7.68c2.38 2.38 6.06 2.88 8.99 1.23 5.13-2.9 10.54-5.22 16.09-6.89 3.16-.96 5.33-3.88 5.33-7.18v-10.6c0-1.69 1.4-3.11 3.07-3.11h11.53 16.04.58c1.66 0 3.07 1.42 3.07 3.11v10.17c0 3.36 2.24 6.32 5.48 7.22 5.66 1.59 11.23 3.87 16.56 6.79.91.5 1.9.79 2.89.88 2.17.22 4.39-.54 6.01-2.16l7.15-7.14c1.18-1.18 3.17-1.18 4.36 0l1.74 1.74 18.16 18.16c1.18 1.18 1.18 3.18 0 4.36l-7.15 7.14c-2.35 2.36-2.87 5.98-1.27 8.91 2.91 5.32 5.19 10.89 6.78 16.56.91 3.24 3.86 5.48 7.22 5.48h10.18c1.68 0 3.1 1.4 3.1 3.07v28.15z"/><path d="m398.658 364.428c-18.875 0-34.23 15.355-34.23 34.23 0 18.859 15.355 34.202 34.23 34.202 18.859 0 34.202-15.342 34.202-34.202 0-18.874-15.343-34.23-34.202-34.23zm0 53.432c-10.603 0-19.23-8.614-19.23-19.202 0-10.603 8.627-19.23 19.23-19.23 10.588 0 19.202 8.627 19.202 19.23 0 10.588-8.614 19.202-19.202 19.202z"/></g></svg>